STARTFONT 2.1
COMMENT  
COMMENT  WARNING:  This bdf file was generated from an X server using
COMMENT  xbdfdump.  The resulting font is subject to the same copyright,
COMMENT  license, and trademark restrictions as the original font.  The
COMMENT  author and distributors of xbdfdump disclaim all liability for
COMMENT  misuse of the program or its output.
COMMENT  
FONT -phaisarn-angsana-bold-r-normal--24-240-75-75-p-75-tis620-0
SIZE 24 75 75
FONTBOUNDINGBOX 56 70 -18 -21
STARTPROPERTIES 27
FOUNDRY "Phaisarn"
FAMILY_NAME "Angsana"
WEIGHT_NAME "bold"
SLANT "r"
SETWIDTH_NAME "normal"
ADD_STYLE_NAME ""
PIXEL_SIZE 24
POINT_SIZE 240
RESOLUTION_X 75
RESOLUTION_Y 75
SPACING "p"
AVERAGE_WIDTH 75
CHARSET_REGISTRY "tis620"
CHARSET_ENCODING "0"
COPYRIGHT "Angsana by Pt-TITech 1997"
RAW_PIXELSIZE 1000
RAW_POINTSIZE 0
RAW_ASCENT 0
RAW_DESCENT 0
RAW_AVERAGE_WIDTH 2994
FACE_NAME "Angsana Bold"
WEIGHT 10
X_HEIGHT 15
QUAD_WIDTH 20
FONT_ASCENT 50
FONT_DESCENT 10
_XMBDFED_INFO "Edited with xmbdfed 4.5."
ENDPROPERTIES
CHARS 195
STARTCHAR space
ENCODING 32
SWIDTH 320 0
DWIDTH 8 0
BBX 0 0 0 0
BITMAP
ENDCHAR
STARTCHAR exclam
ENCODING 33
SWIDTH 440 0
DWIDTH 11 0
BBX 5 22 3 0
BITMAP
70
F8
F8
F8
F8
F8
70
70
70
70
70
60
20
20
20
00
00
70
F8
F8
F8
70
ENDCHAR
STARTCHAR quotedbl
ENCODING 34
SWIDTH 720 0
DWIDTH 18 0
BBX 12 10 3 11
BITMAP
70E0
F9F0
F9F0
F9F0
F9E0
70E0
70E0
70E0
2040
2040
ENDCHAR
STARTCHAR numbersign
ENCODING 35
SWIDTH 640 0
DWIDTH 16 0
BBX 14 22 1 0
BITMAP
061C
0618
0C18
0C18
0C18
0C38
0C30
FFFC
FFFC
1830
1860
3860
3060
FFFC
FFFC
FFFC
30C0
60C0
60C0
60C0
6180
E180
ENDCHAR
STARTCHAR dollar
ENCODING 36
SWIDTH 640 0
DWIDTH 16 0
BBX 14 24 1 -2
BITMAP
0100
0FE0
3978
7138
7118
F108
F908
FD00
7F00
3F80
1FC0
0FE0
03F8
01F8
01FC
017C
413C
413C
6138
6138
7970
3FC0
0100
0100
ENDCHAR
STARTCHAR percent
ENCODING 37
SWIDTH 1280 0
DWIDTH 32 0
BBX 28 23 2 -1
BITMAP
1F000C00
3B801C00
71C01800
F1E03000
F1E07000
F1E06000
F1E0C000
F1E1C000
F1E18000
71C30000
3B830000
0E060700
000E1DC0
000C38E0
001878F0
003878F0
003078F0
006078F0
00E078F0
00C078F0
018038E0
03801DC0
03000F80
ENDCHAR
STARTCHAR ampersand
ENCODING 38
SWIDTH 1080 0
DWIDTH 27 0
BBX 25 22 1 0
BITMAP
007C0000
01CF0000
018F8000
03878000
03878000
03C70000
03CE0000
03DC0000
03E00000
03E03F00
0FF01C00
19F81800
38FC1800
787C1000
787F3000
783FE000
F81FC000
7C1FF080
7E0FF900
7FBFFE00
3FF1FE00
0F807800
ENDCHAR
STARTCHAR apostrophe
ENCODING 39
SWIDTH 360 0
DWIDTH 9 0
BBX 5 10 2 11
BITMAP
70
F8
F8
F8
F8
70
70
70
20
20
ENDCHAR
STARTCHAR parenleft
ENCODING 40
SWIDTH 440 0
DWIDTH 11 0
BBX 9 28 1 -6
BITMAP
0080
0300
0600
0C00
1C00
3800
3800
7800
7800
7000
F000
F000
F000
F000
F000
F000
F000
F000
7000
7800
7800
3800
3800
1C00
0C00
0600
0300
0080
ENDCHAR
STARTCHAR parenright
ENCODING 41
SWIDTH 440 0
DWIDTH 11 0
BBX 9 28 0 -6
BITMAP
C000
6000
3000
1800
0C00
0E00
0E00
0F00
0700
0700
0780
0780
0780
0780
0780
0780
0780
0780
0700
0F00
0F00
0E00
0E00
0C00
1800
3000
6000
C000
ENDCHAR
STARTCHAR asterisk
ENCODING 42
SWIDTH 640 0
DWIDTH 16 0
BBX 12 12 2 10
BITMAP
0600
0F00
0F00
0F00
E670
F6F0
7BE0
0E00
1980
39C0
30C0
30C0
ENDCHAR
STARTCHAR plus
ENCODING 43
SWIDTH 720 0
DWIDTH 18 0
BBX 16 17 1 2
BITMAP
0180
0180
0180
0180
0180
0180
0180
FFFF
FFFF
0180
0180
0180
0180
0180
0180
0180
0180
ENDCHAR
STARTCHAR comma
ENCODING 44
SWIDTH 320 0
DWIDTH 8 0
BBX 6 11 1 -6
BITMAP
70
F8
FC
FC
7C
0C
08
18
10
20
40
ENDCHAR
STARTCHAR minus
ENCODING 45
SWIDTH 440 0
DWIDTH 11 0
BBX 9 3 1 6
BITMAP
FF80
FF80
FF80
ENDCHAR
STARTCHAR period
ENCODING 46
SWIDTH 320 0
DWIDTH 8 0
BBX 5 5 2 0
BITMAP
70
F8
F8
F8
70
ENDCHAR
STARTCHAR slash
ENCODING 47
SWIDTH 360 0
DWIDTH 9 0
BBX 8 22 0 0
BITMAP
03
03
03
06
06
06
0C
0C
0C
18
18
18
18
30
30
30
60
60
60
C0
C0
C0
ENDCHAR
STARTCHAR 0
ENCODING 48
SWIDTH 640 0
DWIDTH 16 0
BBX 14 22 1 0
BITMAP
0780
1CE0
3CF0
3870
7878
7878
7878
F87C
F87C
F87C
F87C
F87C
F87C
F87C
F878
7878
7878
7878
3870
38F0
1CE0
0780
ENDCHAR
STARTCHAR 1
ENCODING 49
SWIDTH 640 0
DWIDTH 16 0
BBX 12 22 2 0
BITMAP
0300
0F00
3F00
FF00
1F00
1F00
1F00
1F00
1F00
1F00
1F00
1F00
1F00
1F00
1F00
1F00
1F00
1F00
1F00
1F00
3F80
FFF0
ENDCHAR
STARTCHAR 2
ENCODING 50
SWIDTH 640 0
DWIDTH 16 0
BBX 14 22 0 0
BITMAP
0780
1FE0
3FF0
3FF0
63F8
41F8
00F8
00F8
00F0
00F0
00E0
01E0
01C0
0380
0300
0600
0C04
080C
1FFC
3FF8
7FF8
FFF8
ENDCHAR
STARTCHAR 3
ENCODING 51
SWIDTH 640 0
DWIDTH 16 0
BBX 13 22 1 0
BITMAP
0F80
1FC0
3FE0
67F0
41F0
C1F0
01E0
01E0
0180
03C0
1FE0
0FF0
03F8
01F8
00F8
0078
0078
0070
C070
E0E0
F9C0
7F00
ENDCHAR
STARTCHAR 4
ENCODING 52
SWIDTH 640 0
DWIDTH 16 0
BBX 14 22 1 0
BITMAP
0070
0070
00F0
01F0
03F0
03F0
05F0
0DF0
09F0
11F0
21F0
61F0
41F0
81F0
FFFC
FFFC
FFFC
01F0
01F0
01F0
01F0
01F0
ENDCHAR
STARTCHAR 5
ENCODING 53
SWIDTH 640 0
DWIDTH 16 0
BBX 13 21 2 0
BITMAP
1FF8
1FF0
3FF0
3FF0
2000
6000
7800
7F80
FFC0
FFE0
7FF0
03F8
00F8
0078
0078
0038
0030
E030
F860
FF80
3C00
ENDCHAR
STARTCHAR 6
ENCODING 54
SWIDTH 640 0
DWIDTH 16 0
BBX 14 22 1 0
BITMAP
003C
01E0
0380
0F00
1E00
1C00
3C00
7C00
7BC0
7FF0
F8F8
F8F8
F8FC
F8FC
F87C
F87C
787C
7878
7C78
3C70
1CE0
0780
ENDCHAR
STARTCHAR 7
ENCODING 55
SWIDTH 640 0
DWIDTH 16 0
BBX 13 21 2 0
BITMAP
7FF8
7FF8
FFF8
FFF0
C030
8070
0060
0060
00E0
00C0
00C0
01C0
0180
0180
0380
0300
0300
0700
0600
0600
0E00
ENDCHAR
STARTCHAR 8
ENCODING 56
SWIDTH 640 0
DWIDTH 16 0
BBX 14 22 1 0
BITMAP
0FC0
3CF0
7878
F03C
F03C
F83C
F838
7E38
7F70
3FC0
1FE0
0FF0
3BF8
71FC
70FC
F07C
F03C
F03C
F03C
7078
38F0
1FC0
ENDCHAR
STARTCHAR 9
ENCODING 57
SWIDTH 640 0
DWIDTH 16 0
BBX 14 22 1 0
BITMAP
0780
1CE0
38F0
7878
7878
F878
F87C
F87C
FC7C
FC7C
7C7C
7C7C
3FF8
0F78
00F8
00F0
00E0
01E0
03C0
0700
1E00
F000
ENDCHAR
STARTCHAR colon
ENCODING 58
SWIDTH 440 0
DWIDTH 11 0
BBX 5 15 3 0
BITMAP
70
F8
F8
F8
70
00
00
00
00
00
70
F8
F8
F8
70
ENDCHAR
STARTCHAR semicolon
ENCODING 59
SWIDTH 440 0
DWIDTH 11 0
BBX 6 21 2 -6
BITMAP
30
78
7C
7C
30
00
00
00
00
00
30
78
FC
FC
3C
0C
0C
18
10
20
40
ENDCHAR
STARTCHAR less
ENCODING 60
SWIDTH 720 0
DWIDTH 18 0
BBX 16 15 1 3
BITMAP
0001
0007
003F
00F8
07E0
1F00
7C00
E000
FC00
1F00
07E0
00F8
003F
0007
0001
ENDCHAR
STARTCHAR equal
ENCODING 61
SWIDTH 720 0
DWIDTH 18 0
BBX 16 7 1 7
BITMAP
FFFF
FFFF
0000
0000
0000
FFFF
FFFF
ENDCHAR
STARTCHAR greater
ENCODING 62
SWIDTH 720 0
DWIDTH 18 0
BBX 16 15 1 3
BITMAP
8000
E000
FC00
1F00
07E0
00F8
003F
0007
003E
00F8
07E0
1F00
FC00
E000
8000
ENDCHAR
STARTCHAR question
ENCODING 63
SWIDTH 640 0
DWIDTH 16 0
BBX 12 22 2 0
BITMAP
1F80
63E0
63E0
E1F0
F1F0
F1F0
61F0
01E0
03E0
0380
0300
0600
0400
0400
0400
0000
0000
0C00
1F00
1F00
1F00
0C00
ENDCHAR
STARTCHAR at
ENCODING 64
SWIDTH 1200 0
DWIDTH 30 0
BBX 28 29 1 -7
BITMAP
000FE000
00701C00
01C00600
03000100
06000080
0C0000C0
18000040
38073840
300CF820
6018F820
6038F020
6070F020
C070F020
C0F1F020
C0E1E040
C1E3E040
C1E3E040
C1E7C080
E1E7C100
61FBC210
60F1C410
20E0F820
30000020
18000040
0C000080
06000300
03000600
00F03800
001FC000
ENDCHAR
STARTCHAR A
ENCODING 65
SWIDTH 920 0
DWIDTH 23 0
BBX 23 22 0 0
BITMAP
000800
001800
001800
003C00
003C00
007E00
007E00
00FE00
00BF00
019F00
011F80
030F80
020FC0
0607C0
0407C0
0FFFE0
0803E0
0803F0
1001F0
3001F8
7801FC
FE07FE
ENDCHAR
STARTCHAR B
ENCODING 66
SWIDTH 840 0
DWIDTH 21 0
BBX 19 21 1 0
BITMAP
FFF800
1F3F00
1F0F80
1F0780
1F07C0
1F07C0
1F07C0
1F0780
1F0F00
1FFC00
1FFE00
1F0F80
1F07C0
1F07E0
1F07E0
1F07E0
1F07E0
1F07C0
1F07C0
1F1F00
FFFC00
ENDCHAR
STARTCHAR C
ENCODING 67
SWIDTH 920 0
DWIDTH 23 0
BBX 21 22 1 0
BITMAP
00FE08
03E1F0
0F8070
1F0030
3E0010
3E0010
7E0008
7E0000
FC0000
FC0000
FC0000
FC0000
FC0000
FC0000
7E0000
7E0000
3E0008
3F0010
1F8030
07C1C0
03FF80
007E00
ENDCHAR
STARTCHAR D
ENCODING 68
SWIDTH 920 0
DWIDTH 23 0
BBX 22 21 0 0
BITMAP
FFF800
3FFF00
1F07C0
1F03E0
1F01F0
1F01F8
1F01F8
1F00F8
1F00FC
1F00FC
1F00FC
1F00FC
1F00FC
1F00F8
1F00F8
1F01F8
1F01F0
1F01F0
1F03E0
1F0F80
FFF800
ENDCHAR
STARTCHAR E
ENCODING 69
SWIDTH 840 0
DWIDTH 21 0
BBX 19 21 1 0
BITMAP
FFFF80
1F0380
1F0180
1F0080
1F0080
1F0840
1F0800
1F0800
1F1800
1F7800
1FF800
1F1800
1F1800
1F0800
1F0820
1F0820
1F0040
1F0040
1F00C0
1F03C0
FFFFC0
ENDCHAR
STARTCHAR F
ENCODING 70
SWIDTH 800 0
DWIDTH 20 0
BBX 18 21 1 0
BITMAP
FFFFC0
1F03C0
1F00C0
1F00C0
1F0040
1F0440
1F0400
1F0400
1F0C00
1F1C00
1FFC00
1F3C00
1F0C00
1F0400
1F0400
1F0400
1F0000
1F0000
1F0000
3F8000
FFE000
ENDCHAR
STARTCHAR G
ENCODING 71
SWIDTH 1000 0
DWIDTH 25 0
BBX 24 22 1 0
BITMAP
007F08
03E0F8
0F8078
1F0038
3E0018
7E0008
7E0008
7C0000
7C0000
FC0000
FC0000
FC0000
FC0000
FC03FF
FC00FC
7E00F8
7E00F8
3E00F8
1F00F8
0F80F8
03E0F8
007F80
ENDCHAR
STARTCHAR H
ENCODING 72
SWIDTH 1000 0
DWIDTH 25 0
BBX 23 21 1 0
BITMAP
FFEFFE
3F83F8
1F01F0
1F01F0
1F01F0
1F01F0
1F01F0
1F01F0
1F01F0
1FFFF0
1F01F0
1F01F0
1F01F0
1F01F0
1F01F0
1F01F0
1F01F0
1F01F0
1F01F0
3F83F8
FFEFFE
ENDCHAR
STARTCHAR I
ENCODING 73
SWIDTH 480 0
DWIDTH 12 0
BBX 11 21 1 0
BITMAP
FFE0
3F80
1F00
1F00
1F00
1F00
1F00
1F00
1F00
1F00
1F00
1F00
1F00
1F00
1F00
1F00
1F00
1F00
1F00
3F80
FFE0
ENDCHAR
STARTCHAR J
ENCODING 74
SWIDTH 640 0
DWIDTH 16 0
BBX 16 21 0 0
BITMAP
07FF
01FC
00F8
00F8
00F8
00F8
00F8
00F8
00F8
00F8
00F8
00F8
00F8
00F8
00F8
78F8
F8F8
F8F0
70F0
39E0
0F80
ENDCHAR
STARTCHAR K
ENCODING 75
SWIDTH 1000 0
DWIDTH 25 0
BBX 24 21 1 0
BITMAP
FFC1FE
3F8078
1F0070
1F00C0
1F0180
1F0300
1F0400
1F1800
1F3800
1F7800
1FFC00
1F7E00
1F3F00
1F1F80
1F0FC0
1F0FC0
1F07E0
1F03F0
1F01F8
3F81FC
FFC7FF
ENDCHAR
STARTCHAR L
ENCODING 76
SWIDTH 840 0
DWIDTH 21 0
BBX 20 21 1 0
BITMAP
FFE000
3F8000
1F0000
1F0000
1F0000
1F0000
1F0000
1F0000
1F0000
1F0000
1F0000
1F0000
1F0000
1F0000
1F0010
1F0020
1F0020
1F0060
1F0060
1F81E0
FFFFE0
ENDCHAR
STARTCHAR M
ENCODING 77
SWIDTH 1200 0
DWIDTH 30 0
BBX 29 21 1 0
BITMAP
FF800FF8
3F800FE0
1FC01FC0
17C017C0
17C017C0
17E037C0
13E027C0
13F067C0
11F047C0
11F8C7C0
10F887C0
10FC87C0
107D07C0
107D07C0
107F07C0
103E07C0
103E07C0
101C07C0
101C07C0
38080FE0
FE083FF8
ENDCHAR
STARTCHAR N
ENCODING 78
SWIDTH 920 0
DWIDTH 23 0
BBX 21 21 1 0
BITMAP
FE03F8
3F0060
1F8020
1FC020
17E020
17F020
13F820
11F820
10FC20
107E20
103F20
103FA0
101FE0
100FE0
1007E0
1003E0
1001E0
1000E0
1000E0
380060
FE0020
ENDCHAR
STARTCHAR O
ENCODING 79
SWIDTH 1000 0
DWIDTH 25 0
BBX 23 21 1 0
BITMAP
00FE00
07C7C0
0F01E0
1E00F0
3E00F8
7E00FC
7C00FC
7C007C
FC007E
FC007E
FC007E
FC007E
FC007E
7C007C
7C00FC
7E00FC
3E00F8
1E00F0
0F01E0
0787C0
007C00
ENDCHAR
STARTCHAR P
ENCODING 80
SWIDTH 800 0
DWIDTH 20 0
BBX 18 21 1 0
BITMAP
FFFC00
1F1F00
1F0F80
1F07C0
1F07C0
1F07C0
1F07C0
1F07C0
1F0F80
1F1F00
1FFC00
1F0000
1F0000
1F0000
1F0000
1F0000
1F0000
1F0000
1F0000
3F8000
FFE000
ENDCHAR
STARTCHAR Q
ENCODING 81
SWIDTH 1000 0
DWIDTH 25 0
BBX 23 28 1 -6
BITMAP
00FE00
07C7C0
0F01E0
1F00F0
3E00F8
7E00FC
7C007C
7C007C
FC007E
FC007E
FC007E
FC007E
FC007E
FC007E
7C007C
7C007C
7E00FC
3E00F8
1E00F0
0F01E0
0783C0
01FF00
007C00
007E00
003E00
001F00
000FF4
0003F8
ENDCHAR
STARTCHAR R
ENCODING 82
SWIDTH 920 0
DWIDTH 23 0
BBX 22 21 1 0
BITMAP
FFFE00
1F0F80
1F07C0
1F07E0
1F03E0
1F03E0
1F03E0
1F03E0
1F07C0
1F0F80
1FFE00
1F3E00
1F3F00
1F1F00
1F0F80
1F0FC0
1F07E0
1F03E0
1F03F0
3F81F8
FFE1FC
ENDCHAR
STARTCHAR S
ENCODING 83
SWIDTH 720 0
DWIDTH 18 0
BBX 15 22 2 0
BITMAP
1F84
3878
7038
E018
E008
F008
F804
FC00
FF00
7FC0
3FF0
1FF8
07FC
01FE
807E
803E
801E
801E
C01C
E038
F870
8FC0
ENDCHAR
STARTCHAR T
ENCODING 84
SWIDTH 840 0
DWIDTH 21 0
BBX 20 21 1 0
BITMAP
FFFFE0
E1F0E0
C1F060
C1F020
81F020
81F010
01F000
01F000
01F000
01F000
01F000
01F000
01F000
01F000
01F000
01F000
01F000
01F000
01F000
03F800
0FFE00
ENDCHAR
STARTCHAR U
ENCODING 85
SWIDTH 920 0
DWIDTH 23 0
BBX 23 21 0 0
BITMAP
FFF0FE
3F8038
1F0010
1F0010
1F0010
1F0010
1F0010
1F0010
1F0010
1F0010
1F0010
1F0010
1F0010
1F0010
1F0010
1F0010
0F0030
0F8020
07E0C0
03FF80
007E00
ENDCHAR
STARTCHAR V
ENCODING 86
SWIDTH 920 0
DWIDTH 23 0
BBX 23 21 0 0
BITMAP
FFC0FE
7F003C
3F0018
1F0010
1F0030
0F8020
0F8060
07C040
07C0C0
07E080
03E100
03F100
01F200
01FA00
00FC00
00FC00
007800
007800
007000
003000
002000
ENDCHAR
STARTCHAR W
ENCODING 87
SWIDTH 1280 0
DWIDTH 32 0
BBX 32 21 0 0
BITMAP
FF8FFC3F
7E03F00E
3E01F00C
3F01F008
1F01F808
1F80F818
0F80F810
0FC0FC30
07C1FC20
07E17E20
07E13E60
03F23E40
03F21F40
01FC1F80
01FC1F80
00F80F80
00F80F00
00F00700
00700700
00700600
00200200
ENDCHAR
STARTCHAR X
ENCODING 88
SWIDTH 920 0
DWIDTH 23 0
BBX 23 21 0 0
BITMAP
7FE3FC
3F80F0
1F80E0
0FC0C0
0FC180
07E100
03F200
03FE00
01FC00
00FC00
007E00
007E00
00FF00
009F80
010F80
020FC0
0607E0
0C03E0
1803F0
3C03F8
FF07FE
ENDCHAR
STARTCHAR Y
ENCODING 89
SWIDTH 920 0
DWIDTH 23 0
BBX 23 21 0 0
BITMAP
FFC07E
3F001C
3F0018
1F8010
0F8020
0FC060
07E040
07E080
03F180
01F300
01FA00
00FE00
007C00
007C00
007C00
007C00
007C00
007C00
007C00
00FE00
07FFC0
ENDCHAR
STARTCHAR Z
ENCODING 90
SWIDTH 840 0
DWIDTH 21 0
BBX 20 21 1 0
BITMAP
3FFFC0
381F80
301F80
603F00
403E00
407E00
00FC00
00FC00
01F800
01F000
03F000
07E000
07E000
0FC010
0F8010
1F8020
3F0020
3F0060
7E00E0
FC03E0
FFFFE0
ENDCHAR
STARTCHAR bracketleft
ENCODING 91
SWIDTH 440 0
DWIDTH 11 0
BBX 6 27 3 -6
BITMAP
FC
F0
F0
F0
F0
F0
F0
F0
F0
F0
F0
F0
F0
F0
F0
F0
F0
F0
F0
F0
F0
F0
F0
F0
F0
F0
FC
ENDCHAR
STARTCHAR backslash
ENCODING 92
SWIDTH 360 0
DWIDTH 9 0
BBX 8 22 0 0
BITMAP
C0
C0
C0
60
60
60
30
30
30
18
18
18
18
0C
0C
0C
06
06
06
03
03
03
ENDCHAR
STARTCHAR bracketright
ENCODING 93
SWIDTH 440 0
DWIDTH 11 0
BBX 6 27 1 -6
BITMAP
FC
3C
3C
3C
3C
3C
3C
3C
3C
3C
3C
3C
3C
3C
3C
3C
3C
3C
3C
3C
3C
3C
3C
3C
3C
3C
FC
ENDCHAR
STARTCHAR asciicircum
ENCODING 94
SWIDTH 760 0
DWIDTH 19 0
BBX 13 12 3 10
BITMAP
0200
0700
0700
0F80
0DC0
18C0
38E0
3060
7070
6030
E038
C018
ENDCHAR
STARTCHAR underscore
ENCODING 95
SWIDTH 640 0
DWIDTH 16 0
BBX 16 2 0 -7
BITMAP
FFFF
FFFF
ENDCHAR
STARTCHAR grave
ENCODING 96
SWIDTH 440 0
DWIDTH 11 0
BBX 6 6 1 16
BITMAP
F8
78
38
1C
0C
04
ENDCHAR
STARTCHAR a
ENCODING 97
SWIDTH 640 0
DWIDTH 16 0
BBX 15 15 1 0
BITMAP
0F80
39E0
39F0
7DF0
7DF0
39F0
03F0
07F0
1DF0
3DF0
79F0
F9F0
FFF2
7FFC
38F0
ENDCHAR
STARTCHAR b
ENCODING 98
SWIDTH 720 0
DWIDTH 18 0
BBX 15 21 1 0
BITMAP
FC00
7C00
7C00
7C00
7C00
7C00
7CE0
7FF8
7E78
7C7C
7C3C
7C3E
7C3E
7C3E
7C3E
7C3E
7C3C
7C3C
7C78
7E70
63C0
ENDCHAR
STARTCHAR c
ENCODING 99
SWIDTH 560 0
DWIDTH 14 0
BBX 12 15 1 0
BITMAP
07C0
38E0
38F0
70F0
7070
F000
F000
F000
F800
F800
FC00
7C10
7FF0
3FE0
0F00
ENDCHAR
STARTCHAR d
ENCODING 100
SWIDTH 720 0
DWIDTH 18 0
BBX 16 21 1 0
BITMAP
00FC
007C
007C
007C
007C
007C
0F7C
3CFC
7C7C
787C
787C
F87C
F87C
F87C
F87C
F87C
F87C
7C7C
7CFC
3FFF
0F70
ENDCHAR
STARTCHAR e
ENCODING 101
SWIDTH 560 0
DWIDTH 14 0
BBX 12 15 1 0
BITMAP
0F80
19C0
38E0
70F0
70F0
F0F0
FFF0
F000
F000
F000
F800
7810
7E20
3FC0
1F00
ENDCHAR
STARTCHAR f
ENCODING 102
SWIDTH 440 0
DWIDTH 11 0
BBX 12 22 1 0
BITMAP
03C0
0EF0
1EF0
3EE0
3E00
3E00
3E00
FF00
FF00
3E00
3E00
3E00
3E00
3E00
3E00
3E00
3E00
3E00
3E00
3E00
3E00
FF00
ENDCHAR
STARTCHAR g
ENCODING 103
SWIDTH 640 0
DWIDTH 16 0
BBX 14 22 1 -7
BITMAP
0F00
1CFC
7CFC
7870
F878
F878
F878
F878
7870
3CE0
0F80
3000
7000
7FE0
7FFC
7FFC
1FFC
701C
E00C
E00C
7838
1FC0
ENDCHAR
STARTCHAR h
ENCODING 104
SWIDTH 720 0
DWIDTH 18 0
BBX 16 21 1 0
BITMAP
FE00
3E00
3E00
3E00
3E00
3E00
3EE0
3EF8
3F7C
3E7C
3E7C
3E7C
3E7C
3E7C
3E7C
3E7C
3E7C
3E7C
3E7C
3E7C
FFFF
ENDCHAR
STARTCHAR i
ENCODING 105
SWIDTH 360 0
DWIDTH 9 0
BBX 8 22 1 0
BITMAP
38
7C
7C
7C
38
00
00
FC
7C
7C
7C
7C
7C
7C
7C
7C
7C
7C
7C
7C
7C
FF
ENDCHAR
STARTCHAR j
ENCODING 106
SWIDTH 440 0
DWIDTH 11 0
BBX 9 29 -1 -7
BITMAP
0300
0F80
0F80
0F80
0300
0000
0000
1F80
0F80
0F80
0F80
0F80
0F80
0F80
0F80
0F80
0F80
0F80
0F80
0F80
0F80
0F80
0F80
0F80
0780
E780
E700
EF00
3C00
ENDCHAR
STARTCHAR k
ENCODING 107
SWIDTH 720 0
DWIDTH 18 0
BBX 17 21 1 0
BITMAP
FE0000
3E0000
3E0000
3E0000
3E0000
3E0000
3E3F00
3E3C00
3E3800
3E2000
3E4000
3E4000
3EC000
3FE000
3EF000
3EF800
3E7800
3E7C00
3E3E00
7E3F00
FF7F80
ENDCHAR
STARTCHAR l
ENCODING 108
SWIDTH 360 0
DWIDTH 9 0
BBX 8 21 1 0
BITMAP
FC
7C
7C
7C
7C
7C
7C
7C
7C
7C
7C
7C
7C
7C
7C
7C
7C
7C
7C
7C
FF
ENDCHAR
STARTCHAR m
ENCODING 109
SWIDTH 1080 0
DWIDTH 27 0
BBX 25 15 1 0
BITMAP
FEF07000
3FFCFC00
3F7F3E00
3E3E3E00
3E3E3E00
3E3E3E00
3E3E3E00
3E3E3E00
3E3E3E00
3E3E3E00
3E3E3E00
3E3E3E00
3E3E3E00
7E7E3E00
FFFF7F80
ENDCHAR
STARTCHAR n
ENCODING 110
SWIDTH 720 0
DWIDTH 18 0
BBX 16 15 1 0
BITMAP
FEE0
7EF8
3F7C
3E7C
3E7C
3E7C
3E7C
3E7C
3E7C
3E7C
3E7C
3E7C
3E7C
3E7C
FFFF
ENDCHAR
STARTCHAR o
ENCODING 111
SWIDTH 640 0
DWIDTH 16 0
BBX 14 15 1 0
BITMAP
0F80
1CE0
3C70
7878
7878
F87C
F87C
F87C
F87C
F87C
7878
7878
3870
1CE0
0F80
ENDCHAR
STARTCHAR p
ENCODING 112
SWIDTH 720 0
DWIDTH 18 0
BBX 15 22 1 -7
BITMAP
FCE0
7DF8
7E7C
7C7C
7C3C
7C3E
7C3E
7C3E
7C3E
7C3E
7C3C
7C3C
7E78
7DF0
7CE0
7C00
7C00
7C00
7C00
7C00
7C00
FF00
ENDCHAR
STARTCHAR q
ENCODING 113
SWIDTH 720 0
DWIDTH 18 0
BBX 16 22 1 -7
BITMAP
0784
1EDC
3C7C
7C7C
787C
F87C
F87C
F87C
F87C
F87C
FC7C
7C7C
7C7C
3FFC
1F7C
007C
007C
007C
007C
007C
007E
00FF
ENDCHAR
STARTCHAR r
ENCODING 114
SWIDTH 560 0
DWIDTH 14 0
BBX 13 15 1 0
BITMAP
FE78
3EF8
3FF8
3F38
3E00
3E00
3E00
3E00
3E00
3E00
3E00
3E00
3E00
3E00
FF00
ENDCHAR
STARTCHAR s
ENCODING 115
SWIDTH 480 0
DWIDTH 12 0
BBX 10 15 1 0
BITMAP
3E80
6380
E180
E080
F080
FC00
FE00
7F80
3F80
0FC0
87C0
83C0
C380
E380
BE00
ENDCHAR
STARTCHAR t
ENCODING 116
SWIDTH 440 0
DWIDTH 11 0
BBX 10 20 1 0
BITMAP
0400
0C00
1C00
3C00
7C00
7FC0
FFC0
7C00
7C00
7C00
7C00
7C00
7C00
7C00
7C00
7C00
7C00
7C40
3F80
0E00
ENDCHAR
STARTCHAR u
ENCODING 117
SWIDTH 720 0
DWIDTH 18 0
BBX 16 15 1 0
BITMAP
FEFC
3E7C
3E7C
3E7C
3E7C
3E7C
3E7C
3E7C
3E7C
3E7C
3E7C
3E7C
3EFC
1F7C
077F
ENDCHAR
STARTCHAR v
ENCODING 118
SWIDTH 640 0
DWIDTH 16 0
BBX 16 15 0 0
BITMAP
FF1F
7E0E
3E04
3E0C
1E08
1F08
0F10
0F90
07A0
07E0
03C0
03C0
03C0
0180
0180
ENDCHAR
STARTCHAR w
ENCODING 119
SWIDTH 920 0
DWIDTH 23 0
BBX 23 15 0 0
BITMAP
FFFF3E
7E7E1C
3E3E08
3E3E18
1E3F10
1E7F30
0F4F20
0F4FA0
0FCFE0
0787C0
0787C0
038380
038380
010380
010100
ENDCHAR
STARTCHAR x
ENCODING 120
SWIDTH 640 0
DWIDTH 16 0
BBX 14 15 1 0
BITMAP
FF7C
7C30
3E20
1E60
0F40
0F80
0780
07C0
03C0
07E0
07E0
09F0
19F8
38F8
FFFC
ENDCHAR
STARTCHAR y
ENCODING 121
SWIDTH 640 0
DWIDTH 16 0
BBX 16 22 0 -7
BITMAP
FF1F
7E0E
3E04
1E0C
1F08
0F08
0F98
0790
0790
07E0
03E0
03C0
01C0
01C0
0180
0080
0100
3100
7900
7A00
3E00
1C00
ENDCHAR
STARTCHAR z
ENCODING 122
SWIDTH 560 0
DWIDTH 14 0
BBX 13 15 1 0
BITMAP
7FF0
61F0
43E0
43E0
07C0
07C0
0F80
0F00
1F00
3E00
3E08
7C10
7C10
F8F0
FFF0
ENDCHAR
STARTCHAR braceleft
ENCODING 123
SWIDTH 520 0
DWIDTH 13 0
BBX 8 28 3 -6
BITMAP
03
0C
3C
3C
3C
3C
3C
3C
3C
3C
3C
3C
30
C0
C0
30
3C
3C
3C
3C
3C
3C
3C
3C
3C
3C
1C
03
ENDCHAR
STARTCHAR bar
ENCODING 124
SWIDTH 280 0
DWIDTH 7 0
BBX 2 29 2 -7
BITMAP
C0
C0
C0
C0
C0
C0
C0
C0
C0
C0
C0
C0
C0
C0
C0
C0
C0
C0
C0
C0
C0
C0
C0
C0
C0
C0
C0
C0
C0
ENDCHAR
STARTCHAR braceright
ENCODING 125
SWIDTH 520 0
DWIDTH 13 0
BBX 8 28 2 -6
BITMAP
C0
38
3C
3C
3C
3C
3C
3C
3C
3C
3C
3C
0C
03
03
0C
3C
3C
3C
3C
3C
3C
3C
3C
3C
3C
30
C0
ENDCHAR
STARTCHAR asciitilde
ENCODING 126
SWIDTH 680 0
DWIDTH 17 0
BBX 16 5 1 6
BITMAP
3C01
7F81
C7E3
81FE
803C
ENDCHAR
STARTCHAR C001122
ENCODING 133
SWIDTH 1280 0
DWIDTH 32 0
BBX 26 5 3 0
BITMAP
700E0380
F81F07C0
F81F07C0
F81F07C0
700E0380
ENDCHAR
STARTCHAR C001107
ENCODING 145
SWIDTH 440 0
DWIDTH 11 0
BBX 6 11 2 11
BITMAP
08
10
20
60
40
C0
F8
FC
FC
7C
38
ENDCHAR
STARTCHAR C001110
ENCODING 146
SWIDTH 440 0
DWIDTH 11 0
BBX 6 11 2 11
BITMAP
70
F8
FC
FC
7C
0C
08
18
10
20
40
ENDCHAR
STARTCHAR C001113
ENCODING 147
SWIDTH 640 0
DWIDTH 16 0
BBX 14 11 1 11
BITMAP
0808
1010
2020
6060
4040
C0C0
F8F8
FCFC
FCFC
7C7C
3838
ENDCHAR
STARTCHAR C001114
ENCODING 148
SWIDTH 640 0
DWIDTH 16 0
BBX 14 11 1 11
BITMAP
7070
F8F8
FCFC
FCFC
7C7C
0C0C
0808
1818
1010
2020
4040
ENDCHAR
STARTCHAR C001121
ENCODING 149
SWIDTH 440 0
DWIDTH 11 0
BBX 9 9 1 6
BITMAP
1C00
7F00
7F00
FF80
FF80
FF80
7F00
7F00
1C00
ENDCHAR
STARTCHAR C001103
ENCODING 150
SWIDTH 640 0
DWIDTH 16 0
BBX 16 2 0 6
BITMAP
FFFF
FFFF
ENDCHAR
STARTCHAR C001104
ENCODING 151
SWIDTH 1280 0
DWIDTH 32 0
BBX 32 2 0 6
BITMAP
FFFFFFFF
FFFFFFFF
ENDCHAR
STARTCHAR exclamdown
ENCODING 161
SWIDTH 760 0
DWIDTH 19 0
BBX 15 20 2 0
BITMAP
0FC0
3FF0
7078
603C
403C
C01C
FF1E
FF1E
781E
781E
781E
781E
781E
781E
781E
781E
781E
781E
781C
7818
ENDCHAR
STARTCHAR cent
ENCODING 162
SWIDTH 800 0
DWIDTH 20 0
BBX 17 20 1 0
BITMAP
3F0180
7FC780
63E780
C1E780
F9E780
8DE780
85E780
CDE780
39E780
01E780
01E780
01E780
01E780
01E780
01E780
01E780
01E780
00F700
00FE00
003C00
ENDCHAR
STARTCHAR sterling
ENCODING 163
SWIDTH 880 0
DWIDTH 22 0
BBX 19 20 1 0
BITMAP
18E060
39F0E0
7BF9E0
7F79E0
E679E0
C479E0
C079E0
C479E0
C679E0
6E79E0
3C79E0
1879E0
0079E0
0079E0
0079E0
0079E0
0079E0
003DC0
003FC0
000F00
ENDCHAR
STARTCHAR currency
ENCODING 164
SWIDTH 800 0
DWIDTH 20 0
BBX 17 20 1 0
BITMAP
03E000
0FFC00
3FFE00
787F00
600F00
C78780
DFC780
FC6780
F82780
7C2780
7E6780
3FC780
3C0780
3C0780
3C0780
3C0780
3C0780
3C0780
3C0780
3C0780
ENDCHAR
STARTCHAR yen
ENCODING 165
SWIDTH 800 0
DWIDTH 20 0
BBX 18 20 1 0
BITMAP
0F1C00
1FBF00
3FFF80
30E780
6047C0
6043C0
4003C0
CF83C0
DFC3C0
FC23C0
7823C0
7C63C0
3F83C0
3C03C0
3C03C0
3C03C0
3C03C0
3C03C0
3C03C0
3C03C0
ENDCHAR
STARTCHAR brokenbar
ENCODING 166
SWIDTH 960 0
DWIDTH 24 0
BBX 20 20 2 0
BITMAP
218030
33E070
77E0F0
FFF0F0
DCF0F0
C8F0F0
80F0F0
C0F0F0
D8F0F0
78F0F0
38F0F0
00F0F0
03F8F0
0FFEF0
1CF7F0
18F1F0
18F0F0
1CF0F0
0FE070
07C030
ENDCHAR
STARTCHAR section
ENCODING 167
SWIDTH 640 0
DWIDTH 16 0
BBX 12 20 2 0
BITMAP
0380
07E0
0CE0
0870
0870
0CF0
07F0
00F0
00F0
80F0
C0F0
60F0
30F0
3CF0
1EF0
0FF0
07F0
03F0
01F0
00F0
ENDCHAR
STARTCHAR diaeresis
ENCODING 168
SWIDTH 760 0
DWIDTH 19 0
BBX 16 20 1 0
BITMAP
07E0
3FFC
787C
403E
001E
3C0F
7F0F
C70F
838F
838F
C78F
3F8F
078F
078F
078F
078F
078F
078F
03FE
00F8
ENDCHAR
STARTCHAR copyright
ENCODING 169
SWIDTH 840 0
DWIDTH 21 0
BBX 18 20 1 0
BITMAP
01F000
1FFC00
3C3F00
000F00
3C0780
7E0780
C70780
830780
C70780
7F0780
3F0780
0F0780
0F0780
0F0780
0F1F80
0FFF80
0FC840
0F8840
0F0C40
0E0780
ENDCHAR
STARTCHAR ordfeminine
ENCODING 170
SWIDTH 800 0
DWIDTH 20 0
BBX 17 20 1 0
BITMAP
3E0780
7F0780
678700
C3CF00
D3CE00
9BFC00
DBFC00
FBCE00
73CE00
03CF00
03CF00
03CF00
03CF00
03CF00
03CF00
03CE00
03CE00
03DE00
07FC00
07F800
ENDCHAR
STARTCHAR guillemotleft
ENCODING 171
SWIDTH 920 0
DWIDTH 23 0
BBX 20 20 1 0
BITMAP
10C0F0
39F0F0
7FF1F0
6F79E0
E67BC0
C47F80
C07F80
C07BC0
C67BC0
667BE0
7E7BE0
387BE0
007BE0
007BE0
007BE0
007BE0
007BC0
007BC0
00FF80
00FF00
ENDCHAR
STARTCHAR notsign
ENCODING 172
SWIDTH 1040 0
DWIDTH 26 0
BBX 23 20 1 0
BITMAP
07F006
1FFC0E
383E1E
301E1E
700F1E
600F1E
FF0F1E
FF0F1E
3C0F1E
3C0F1E
3C0F1E
3C0F1E
3C0F1E
3C0F9E
3E1FFE
232F3E
212F1E
232F0E
3E1E0E
1C0C06
ENDCHAR
STARTCHAR hyphen
ENCODING 173
SWIDTH 1080 0
DWIDTH 27 0
BBX 24 29 1 -9
BITMAP
07F003
1FFC07
387E0F
701F0F
600F0F
600F0F
FF0F0F
FF0F0F
3C0F0F
3C0F0F
3C0F0F
3C0F0F
3C0F0F
3E0F0F
3F8F0F
3C4F0F
38471E
1CC7FE
1F83FC
0700F0
000000
000000
00071E
000F9E
000F9E
000D1E
000E3C
0007FC
0001F0
ENDCHAR
STARTCHAR registered
ENCODING 174
SWIDTH 880 0
DWIDTH 22 0
BBX 19 29 1 -9
BITMAP
00FC00
03FF00
071FC0
0403C0
0801E0
0FC1E0
0FC1E0
0781E0
0781E0
0781E0
0781E0
0781E0
0781E0
7F81E0
C781E0
8781E0
C781E0
FF01E0
7E31E0
0821E0
0021E0
01C1E0
03F1E0
047DE0
04EFE0
07C7E0
0183E0
0001E0
0001E0
ENDCHAR
STARTCHAR macron
ENCODING 175
SWIDTH 880 0
DWIDTH 22 0
BBX 19 29 1 -9
BITMAP
00FC00
03FF00
070FC0
0C03C0
1C01E0
0FE1E0
0FE1E0
0781E0
0781E0
0781E0
0781E0
0781E0
0781E0
3F81E0
7F81E0
E781E0
C381E0
E781E0
7F01E0
1CC1E0
01C1E0
0381E0
0F01E0
1F81E0
3381E0
22DFE0
1EFFE0
0C41E0
0001E0
ENDCHAR
STARTCHAR degree
ENCODING 176
SWIDTH 760 0
DWIDTH 19 0
BBX 16 29 1 -9
BITMAP
0702
1FE7
3FFE
30FC
7038
6FC0
7FF0
40F8
3C7C
7E3C
C73C
873C
873C
7F3C
3F3C
0F3C
0FBC
0FFC
07FC
00F0
0000
0638
064C
7E44
4746
CFBE
79BE
31FC
01FC
ENDCHAR
STARTCHAR plusminus
ENCODING 177
SWIDTH 1040 0
DWIDTH 26 0
BBX 23 20 1 0
BITMAP
18C070
39F1FC
7FF1BC
6FFB1E
E67B1E
C27B1E
C07E1E
C67E1E
C67E1E
6E7E1E
3C7C1E
1C7C1E
007C1E
007C1E
007C1E
00781E
00781E
00781E
00781E
00781E
ENDCHAR
STARTCHAR twosuperior
ENCODING 178
SWIDTH 1080 0
DWIDTH 27 0
BBX 24 20 1 0
BITMAP
071803
0F1C07
1FBE0F
3CE70F
78C70F
78478F
F0078F
F0C78F
F3F78F
F3778F
7B778F
38778F
3C778F
1CC78F
1F87FF
1F0FFF
1E0FCF
1E0F8F
1E0787
1E0703
ENDCHAR
STARTCHAR threesuperior
ENCODING 179
SWIDTH 1080 0
DWIDTH 27 0
BBX 24 20 1 0
BITMAP
07E003
1FF807
387C07
703E0F
601F0F
600F0F
FF0F0F
FF0F0F
3C0F0F
3C0F0F
3C0F0F
3C0F0F
3C0F0F
3C0F1E
3F8F7E
3CCFFB
384F91
1C8F91
0F8F0F
02000E
ENDCHAR
STARTCHAR acute
ENCODING 180
SWIDTH 800 0
DWIDTH 20 0
BBX 17 20 1 0
BITMAP
03F000
0FFC00
3C3F00
380F00
700780
600780
E00780
E18780
E3E780
F2E780
F2E780
78C780
79C780
3D8780
3F0780
3E0780
3C0780
3C0780
3C0780
3C0780
ENDCHAR
STARTCHAR mu
ENCODING 181
SWIDTH 800 0
DWIDTH 20 0
BBX 17 20 1 0
BITMAP
061800
1F3E00
3FFF00
7CEF80
784780
F80780
F1C780
F3F780
F27780
F87780
786780
78C780
7DC780
3F8780
3F0780
3E0780
3C0780
3C0780
3C0780
3C0780
ENDCHAR
STARTCHAR paragraph
ENCODING 182
SWIDTH 760 0
DWIDTH 19 0
BBX 17 20 1 0
BITMAP
03F000
1FFE00
381F00
700F80
600780
600780
FF0780
FF0780
3C0780
3C0780
3C0780
3C0780
3C0780
3F8780
3CC780
382780
3C2780
1CE700
1FC700
0F8600
ENDCHAR
STARTCHAR periodcentered
ENCODING 183
SWIDTH 880 0
DWIDTH 22 0
BBX 19 20 1 0
BITMAP
380F00
7E1FC0
8733C0
8731E0
8761E0
4F61E0
3F61E0
0FE1E0
0FC1E0
0FC1E0
0FC1E0
0FC1E0
0F81E0
0F81E0
0F81E0
0F81E0
0F81E0
0F01E0
0F01E0
0F01E0
ENDCHAR
STARTCHAR cedilla
ENCODING 184
SWIDTH 760 0
DWIDTH 19 0
BBX 15 20 2 0
BITMAP
1C02
7F8C
59FC
DCF8
9E70
DE00
FF00
1FF0
1E7C
1E3C
1E3C
1E3C
1E3C
1E3C
1E3C
1E3C
1E3C
1E3C
FFF8
FFF0
ENDCHAR
STARTCHAR onesuperior
ENCODING 185
SWIDTH 880 0
DWIDTH 22 0
BBX 19 20 2 0
BITMAP
3C0040
7E00C0
CE01C0
8703C0
8703C0
CF03C0
3F03C0
0F03C0
0F03C0
0F03C0
0F03C0
0F03C0
0F1FC0
0F7FC0
0FF7C0
0FC460
0F8420
0F0420
0F0640
0F0380
ENDCHAR
STARTCHAR masculine
ENCODING 186
SWIDTH 880 0
DWIDTH 22 0
BBX 19 20 1 0
BITMAP
3C01E0
7F01E0
C701E0
8781E0
8781E0
C781E0
3F81E0
0781E0
0781E0
0781E0
0781E0
0781E0
0781E0
0781E0
0781E0
0781E0
0781E0
0781E0
1FFFC0
1FFF80
ENDCHAR
STARTCHAR guillemotright
ENCODING 187
SWIDTH 880 0
DWIDTH 22 0
BBX 19 32 1 0
BITMAP
000060
0000E0
0001E0
0001E0
0001E0
0001E0
0001E0
0001E0
0001E0
0001E0
0001E0
0001E0
3C01E0
7F01E0
C701E0
8781E0
8781E0
C781E0
3F81E0
0781E0
0781E0
0781E0
0781E0
0781E0
0781E0
0781E0
0781E0
0781E0
0781E0
0783C0
1FFFC0
1FFF00
ENDCHAR
STARTCHAR onequarter
ENCODING 188
SWIDTH 800 0
DWIDTH 20 0
BBX 17 20 1 0
BITMAP
1C0780
3F0780
738780
E18780
E18780
F38780
FF0780
F00780
F0C780
F0C780
F1E780
F32780
F73780
F61780
FC1F80
FC0F80
F80F80
F00780
F00700
F00600
ENDCHAR
STARTCHAR onehalf
ENCODING 189
SWIDTH 800 0
DWIDTH 20 0
BBX 17 32 1 0
BITMAP
000180
000380
000780
000780
000780
000780
000780
000780
000780
000780
000780
000780
1C0780
3F0780
738780
E18780
E18780
F38780
FF0780
F00780
F0C780
F0C780
F1E780
F32780
F73780
F61780
FC1F80
FC0F80
F80F80
F00700
F00700
F00600
ENDCHAR
STARTCHAR threequarters
ENCODING 190
SWIDTH 960 0
DWIDTH 24 0
BBX 21 20 1 0
BITMAP
3E0C78
7F0C78
C70C78
839C78
839E78
479278
3F9278
07B378
07B378
07B178
07A178
07E1F8
07E1F8
07E1F8
07C0F8
07C0F8
07C0F8
07C0F8
078078
078078
ENDCHAR
STARTCHAR questiondown
ENCODING 191
SWIDTH 960 0
DWIDTH 24 0
BBX 21 31 1 0
BITMAP
000018
000038
000078
000078
000078
000078
000078
000078
000078
000078
000078
3C0878
4E1C78
871C78
871478
873478
4F3678
3F2278
0F2278
0F6378
0F6378
0F4178
0FC1F8
0FC1F8
0FC1F8
0F80F8
0F80F8
0F80F8
0F80F8
0F0078
0F0078
ENDCHAR
STARTCHAR Agrave
ENCODING 192
SWIDTH 840 0
DWIDTH 21 0
BBX 18 20 1 0
BITMAP
01F800
03FE00
070F80
0C0780
0C03C0
0C03C0
1FE3C0
1FE3C0
0703C0
0703C0
0703C0
0703C0
0703C0
0703C0
7F03C0
C303C0
8303C0
C203C0
7E0380
3C0300
ENDCHAR
STARTCHAR Aacute
ENCODING 193
SWIDTH 840 0
DWIDTH 21 0
BBX 18 20 1 0
BITMAP
1E00C0
7F01C0
C703C0
8783C0
8783C0
C783C0
7F83C0
0783C0
0783C0
0783C0
0783C0
0783C0
0FC3C0
3FE3C0
67B3C0
679BC0
678FC0
770FC0
3F07C0
1E0380
ENDCHAR
STARTCHAR Acircumflex
ENCODING 194
SWIDTH 720 0
DWIDTH 18 0
BBX 15 20 1 0
BITMAP
3E06
7F0E
F18E
E09E
E09E
F19E
FF1E
F01E
F01E
781E
7F1E
7E1E
F81E
F01E
F01E
F01E
F03E
F83E
7FFC
3FF8
ENDCHAR
STARTCHAR Atilde
ENCODING 195
SWIDTH 680 0
DWIDTH 17 0
BBX 13 20 2 0
BITMAP
0E00
1F88
3FF8
7FF0
E0E0
F000
FF80
0FE0
00F0
00F0
00F0
00F0
00F0
00F0
07F0
08F0
0870
0CF0
07E0
03C0
ENDCHAR
STARTCHAR Adiaeresis
ENCODING 196
SWIDTH 760 0
DWIDTH 19 0
BBX 16 31 1 -11
BITMAP
0FE0
1FF8
387C
701E
601F
E00F
FF0F
FF0F
3C0F
3C0F
3C0F
3C0F
3C0F
3F8F
3CCF
384F
384F
1CCF
1F8F
0F0F
000F
000F
000F
000F
000F
000F
000F
000F
000F
000F
000F
ENDCHAR
STARTCHAR Aring
ENCODING 197
SWIDTH 760 0
DWIDTH 19 0
BBX 15 20 2 0
BITMAP
1FC0
3FF0
60FC
C07C
803E
071E
1FFE
3C7E
783E
781E
781E
781E
781E
7C1E
7B1E
719E
719E
799E
3F1E
0E1E
ENDCHAR
STARTCHAR AE
ENCODING 198
SWIDTH 840 0
DWIDTH 21 0
BBX 18 30 1 -10
BITMAP
00FC00
03FF00
070F80
0E0780
0C03C0
0C03C0
1FE3C0
1FE3C0
0783C0
0783C0
0783C0
0783C0
0783C0
1F83C0
7F83C0
C383C0
C383C0
E703C0
7F03C0
3C03C0
0003C0
0003C0
0003C0
0003C0
0003C0
0003C0
0003C0
0003C0
0003C0
0003C0
ENDCHAR
STARTCHAR Ccedilla
ENCODING 199
SWIDTH 720 0
DWIDTH 18 0
BBX 14 20 2 0
BITMAP
0FC0
3FF0
F0F8
C03C
803C
003C
003C
003C
003C
003C
003C
003C
003C
01FC
077C
043C
043C
063C
03F8
01E0
ENDCHAR
STARTCHAR Egrave
ENCODING 200
SWIDTH 800 0
DWIDTH 20 0
BBX 18 20 1 0
BITMAP
03F1C0
0FFD80
3C3F80
700F80
700F00
E78F80
EFDF80
DC7F80
FC3780
7C2780
7E4780
3F8780
1E0780
1E0780
1E0780
1E0780
1E0780
1E0780
1E0780
1E0780
ENDCHAR
STARTCHAR Eacute
ENCODING 201
SWIDTH 880 0
DWIDTH 22 0
BBX 19 20 1 0
BITMAP
1C0060
7F00E0
C700E0
8781E0
8781E0
C781E0
3F81E0
0781E0
07B1E0
07FDE0
07C9E0
07C3E0
07FFE0
07BDE0
0781E0
0781E0
0781E0
0781E0
1FFFC0
1FFF80
ENDCHAR
STARTCHAR Ecircumflex
ENCODING 202
SWIDTH 840 0
DWIDTH 21 0
BBX 18 20 2 0
BITMAP
0F83C0
3FF1C0
607980
C03F00
801F00
079E00
1FFE00
3C7E00
783E00
781E00
781E00
781E00
781E00
781E00
7F1E00
71DE00
70DE00
78DE00
3F9E00
1E1E00
ENDCHAR
STARTCHAR Ediaeresis
ENCODING 203
SWIDTH 920 0
DWIDTH 23 0
BBX 20 20 1 0
BITMAP
3C01E0
7F0320
C70230
878210
878230
4783E0
3F87E0
079DE0
07B9E0
07F1E0
07E1E0
07C1E0
0781E0
0781E0
0781E0
0781E0
0781E0
0781E0
0781E0
0781E0
ENDCHAR
STARTCHAR Igrave
ENCODING 204
SWIDTH 1120 0
DWIDTH 28 0
BBX 24 20 1 0
BITMAP
3C04E7
7F05B7
C78D1F
838D1E
838D9E
479EF8
3F9E78
079278
07B378
07B378
07B378
07A1F8
07E1F8
07E1F8
07E0F8
07C0F8
07C0F8
07C0F8
078078
078078
ENDCHAR
STARTCHAR Iacute
ENCODING 205
SWIDTH 760 0
DWIDTH 19 0
BBX 15 20 2 0
BITMAP
07C0
1FF0
78F8
E07C
C03C
8E1C
3F1E
799E
789E
789E
7F1E
781E
781E
781E
781E
781E
381C
1C3C
0FF0
03C0
ENDCHAR
STARTCHAR Icircumflex
ENCODING 206
SWIDTH 720 0
DWIDTH 18 0
BBX 15 20 1 0
BITMAP
0FCE
1FEE
307E
603C
607C
3FFE
0F9E
001E
1E1E
3F1E
719E
E09E
E09E
F11E
FE1E
F01E
701C
3838
1FF0
07C0
ENDCHAR
STARTCHAR Idiaeresis
ENCODING 207
SWIDTH 880 0
DWIDTH 22 0
BBX 16 20 4 0
BITMAP
003F
007F
007F
00CF
38CF
7CCF
C08F
C18F
C18F
E30F
7F0F
3C0F
000F
000F
000F
000F
000F
000F
000F
000F
ENDCHAR
STARTCHAR ETH
ENCODING 208
SWIDTH 680 0
DWIDTH 17 0
BBX 14 19 1 0
BITMAP
3C1C
461C
8238
8238
8270
C6F0
7FE0
1F80
0000
0000
0000
381C
7C1C
C618
8238
8278
E7F0
7FE0
1F80
ENDCHAR
STARTCHAR Ntilde
ENCODING 209
SWIDTH 0 0
DWIDTH 0 0
BBX 15 9 -13 22
BITMAP
380E
780E
CC0E
840E
841C
CC3C
7878
3FF0
0F80
ENDCHAR
STARTCHAR Ograve
ENCODING 210
SWIDTH 560 0
DWIDTH 14 0
BBX 10 20 2 0
BITMAP
3E00
7F00
8F80
07C0
03C0
03C0
03C0
03C0
03C0
03C0
03C0
03C0
03C0
03C0
03C0
03C0
03C0
03C0
03C0
03C0
ENDCHAR
STARTCHAR Oacute
ENCODING 211
SWIDTH 560 0
DWIDTH 14 0
BBX 23 30 -11 0
BITMAP
3C0000
7E0000
E70000
C30000
C30000
E30000
7E0000
3C0000
000000
000000
0001F0
0003F8
00067C
00003E
00001E
00001E
00001E
00001E
00001E
00001E
00001E
00001E
00001E
00001E
00001E
00001E
00001E
00001E
00001E
00001E
ENDCHAR
STARTCHAR Ocircumflex
ENCODING 212
SWIDTH 0 0
DWIDTH 0 0
BBX 15 9 -18 22
BITMAP
07C0
1FF0
3FF8
783C
C00C
FF86
FFF6
003E
0002
ENDCHAR
STARTCHAR Otilde
ENCODING 213
SWIDTH 0 0
DWIDTH 0 0
BBX 16 11 -18 22
BITMAP
000E
000E
07CE
1FFE
3FFE
783E
E00E
DF86
FFF2
001E
0003
ENDCHAR
STARTCHAR Odiaeresis
ENCODING 214
SWIDTH 0 0
DWIDTH 0 0
BBX 16 11 -18 22
BITMAP
000C
0012
07F3
1FFA
3FFE
7C1C
6006
FFC6
FFF2
001E
0003
ENDCHAR
STARTCHAR multiply
ENCODING 215
SWIDTH 0 0
DWIDTH 0 0
BBX 16 12 -16 22
BITMAP
01CE
01CE
01CE
0FFE
3FFE
783E
600E
C006
FF86
FFF2
001F
0003
ENDCHAR
STARTCHAR Ooblique
ENCODING 216
SWIDTH 0 0
DWIDTH 0 0
BBX 9 9 -11 -10
BITMAP
3E00
7F00
C700
8380
8380
4780
7F80
0780
0780
ENDCHAR
STARTCHAR Ugrave
ENCODING 217
SWIDTH 0 0
DWIDTH 0 0
BBX 12 9 -14 -10
BITMAP
78F0
F8F0
C4F0
84F0
84F0
7CF0
0CF0
0FF0
0FE0
ENDCHAR
STARTCHAR Uacute
ENCODING 218
SWIDTH 0 0
DWIDTH 0 0
BBX 6 6 -7 -8
BITMAP
70
78
FC
FC
78
30
ENDCHAR
STARTCHAR Ucircumflex
ENCODING 219
SWIDTH 440 0
DWIDTH 11 0
BBX 0 0 0 0
BITMAP
ENDCHAR
STARTCHAR Udiaeresis
ENCODING 220
SWIDTH 440 0
DWIDTH 11 0
BBX 9 5 1 -5
BITMAP
FF80
FF80
FF80
C080
8080
ENDCHAR
STARTCHAR ssharp
ENCODING 223
SWIDTH 880 0
DWIDTH 22 0
BBX 20 28 0 -2
BITMAP
003800
003800
003800
003800
FFFE00
3F3F80
1F3BC0
1F3BE0
1F3BE0
1F3BE0
1F3BE0
1F3BC0
1F3BC0
1F3F00
1FFE00
1F3F80
1F3BE0
1F39E0
1F39F0
1F39F0
1F39F0
1F39F0
1F3BE0
1F3BC0
3FBF80
FFFE00
003800
003800
ENDCHAR
STARTCHAR agrave
ENCODING 224
SWIDTH 360 0
DWIDTH 9 0
BBX 7 20 1 0
BITMAP
38
78
78
78
78
78
78
78
78
78
78
78
78
78
7C
C6
82
82
C4
38
ENDCHAR
STARTCHAR aacute
ENCODING 225
SWIDTH 680 0
DWIDTH 17 0
BBX 16 20 1 0
BITMAP
380C
781C
783C
783C
783C
783C
783C
783C
783C
783C
783C
783C
783C
783C
783E
C433
8421
8421
C432
381E
ENDCHAR
STARTCHAR acircumflex
ENCODING 226
SWIDTH 480 0
DWIDTH 12 0
BBX 13 33 -1 0
BITMAP
1C08
7FF8
7FF0
C3E0
F000
3800
1E00
0F80
0780
03C0
03C0
03C0
03C0
03C0
03C0
03C0
03C0
03C0
03C0
03C0
03C0
03C0
03C0
03C0
03C0
03C0
03C0
03C0
0620
0420
0420
0620
01C0
ENDCHAR
STARTCHAR atilde
ENCODING 227
SWIDTH 440 0
DWIDTH 11 0
BBX 12 33 -2 0
BITMAP
0E00
3F80
63C0
4BC0
DBE0
CDE0
CDE0
7DE0
79E0
11E0
01E0
01E0
01E0
01E0
01E0
01E0
01E0
01E0
01E0
01E0
01E0
01E0
01E0
01E0
01E0
01E0
01E0
01E0
0310
0210
0210
0310
00E0
ENDCHAR
STARTCHAR adiaeresis
ENCODING 228
SWIDTH 560 0
DWIDTH 14 0
BBX 16 34 -3 0
BITMAP
4000
E070
30F8
39B8
39BC
39BC
39BC
39BC
39BC
39BC
3BBC
1F3C
0E3C
003C
003C
003C
003C
003C
003C
003C
003C
003C
003C
003C
003C
003C
003C
003C
003E
0033
0021
0021
0032
001E
ENDCHAR
STARTCHAR aring
ENCODING 229
SWIDTH 600 0
DWIDTH 15 0
BBX 10 30 2 -10
BITMAP
3E00
7F00
8F80
07C0
03C0
03C0
03C0
03C0
03C0
03C0
03C0
03C0
03C0
03C0
03C0
03C0
03C0
03C0
03C0
03C0
03C0
03C0
03C0
03C0
03C0
03C0
03C0
03C0
03C0
03C0
ENDCHAR
STARTCHAR ae
ENCODING 230
SWIDTH 680 0
DWIDTH 17 0
BBX 14 30 1 -10
BITMAP
10E0
39F0
7DF8
6F78
E63C
C23C
C03C
C43C
C63C
663C
7C3C
383C
003C
003C
003C
003C
003C
003C
003C
003C
003C
003C
003C
003C
003C
003C
003C
003C
003C
003C
ENDCHAR
STARTCHAR ccedilla
ENCODING 231
SWIDTH 0 0
DWIDTH 0 0
BBX 12 10 -13 22
BITMAP
0070
00F0
7FE0
FFC0
E0C0
C1E0
FDF0
FEE0
77E0
11C0
ENDCHAR
STARTCHAR egrave
ENCODING 232
SWIDTH 0 0
DWIDTH 0 0
BBX 3 7 -7 36
BITMAP
E0
E0
E0
E0
E0
E0
60
ENDCHAR
STARTCHAR eacute
ENCODING 233
SWIDTH 0 0
DWIDTH 0 0
BBX 10 8 -11 36
BITMAP
61C0
F9C0
99C0
9980
FB80
7F00
7E00
7800
ENDCHAR
STARTCHAR ecircumflex
ENCODING 234
SWIDTH 0 0
DWIDTH 0 0
BBX 15 11 -12 38
BITMAP
000E
318E
7BCE
7FCC
E64C
C448
8058
8E70
6E60
7CC0
1800
ENDCHAR
STARTCHAR ediaeresis
ENCODING 235
SWIDTH 0 0
DWIDTH 0 0
BBX 7 9 -10 38
BITMAP
38
38
38
FE
FE
FE
38
38
38
ENDCHAR
STARTCHAR igrave
ENCODING 236
SWIDTH 0 0
DWIDTH 0 0
BBX 7 10 -8 35
BITMAP
02
06
06
04
7C
C0
CC
EC
7C
38
ENDCHAR
STARTCHAR iacute
ENCODING 237
SWIDTH 0 0
DWIDTH 0 0
BBX 7 8 -10 22
BITMAP
38
7C
EE
C6
C6
E6
7C
38
ENDCHAR
STARTCHAR icircumflex
ENCODING 238
SWIDTH 0 0
DWIDTH 0 0
BBX 9 11 -8 23
BITMAP
0780
1C00
1800
1800
0C00
1E00
7000
E000
E000
E200
7C00
ENDCHAR
STARTCHAR idiaeresis
ENCODING 239
SWIDTH 680 0
DWIDTH 17 0
BBX 15 15 2 1
BITMAP
07C0
1870
3018
6004
43C6
83E2
87E2
87E2
87E2
83C2
43C4
6004
3018
1C30
07C0
ENDCHAR
STARTCHAR eth
ENCODING 240
SWIDTH 760 0
DWIDTH 19 0
BBX 16 14 1 0
BITMAP
07C0
1FF8
3C3C
780E
700E
E007
E007
E007
E007
700E
700E
3C3C
0FF8
07E0
ENDCHAR
STARTCHAR ntilde
ENCODING 241
SWIDTH 720 0
DWIDTH 18 0
BBX 15 14 1 0
BITMAP
07C0
1FF0
3FF8
7C3C
700E
E306
E786
E7C6
E3C6
70CC
71CC
3F9C
1F18
0070
ENDCHAR
STARTCHAR ograve
ENCODING 242
SWIDTH 1040 0
DWIDTH 26 0
BBX 23 22 1 0
BITMAP
600000
F00000
780000
780000
780000
780000
780000
780000
783838
787C7C
78FEFC
78FFFE
79C39E
79838E
79998E
79BD8E
78D98E
78799C
787318
3C0038
3FFFF0
0FFF80
ENDCHAR
STARTCHAR oacute
ENCODING 243
SWIDTH 960 0
DWIDTH 24 0
BBX 21 14 1 0
BITMAP
0F8380
1FF7E0
3FF7F0
783E70
E01C78
E01C38
C00C38
C60C38
CF8C38
EF8C30
6F9870
779860
3F30C0
1E30C0
ENDCHAR
STARTCHAR ocircumflex
ENCODING 244
SWIDTH 960 0
DWIDTH 24 0
BBX 21 22 1 0
BITMAP
000030
000038
000038
000038
000030
0000E0
0001C0
001F80
00FE00
07F000
1F8000
3E0F00
7C1FC0
783FC0
F03FC0
F03900
F01800
F80E00
7C0F80
7FFFE0
3FFFF8
1FC038
ENDCHAR
STARTCHAR otilde
ENCODING 245
SWIDTH 1000 0
DWIDTH 25 0
BBX 22 22 1 0
BITMAP
00001C
00381C
007C1C
00CC1C
00C638
00C638
00EEF0
007FE0
003F80
007800
03F000
0FC380
3F0FE0
7C1FF0
781DF0
F01DE0
F01C40
F00E00
F80700
7E0FC0
3FFFF8
0FE0F0
ENDCHAR
STARTCHAR odiaeresis
ENCODING 246
SWIDTH 680 0
DWIDTH 17 0
BBX 15 22 0 0
BITMAP
C000
E000
F000
7000
3800
1800
1800
1800
1BE0
3FF8
3C3C
201C
001E
080E
1E0E
3E0E
3E0E
3C1C
1C1C
0E38
07F0
01C0
ENDCHAR
STARTCHAR division
ENCODING 247
SWIDTH 1000 0
DWIDTH 25 0
BBX 22 22 1 0
BITMAP
000300
0003C0
0003C0
0001E0
0000F0
000070
000038
000038
0F0E3C
3F8F1C
7FDF9C
7FFFDC
F8F3DC
F061D8
E021D8
E001D8
E181B0
E3C1B0
73E1E0
7BE3E0
3FC3C0
0F0700
ENDCHAR
STARTCHAR oslash
ENCODING 248
SWIDTH 1000 0
DWIDTH 25 0
BBX 22 22 1 0
BITMAP
000010
00001C
00001C
00001C
00001C
00001C
000018
000038
0FC038
1FF870
3FFFF0
7FFFE0
F80F80
E00000
E00000
E703E0
EFC3E0
FFE1E0
7FF9E0
7C7CE0
3C1FC0
1C0780
ENDCHAR
STARTCHAR ugrave
ENCODING 249
SWIDTH 760 0
DWIDTH 19 0
BBX 16 22 1 0
BITMAP
0003
0003
0007
078F
1FFE
3FFE
3878
3800
1E00
0FFC
0FFC
1FF8
3E00
7820
F078
F0F8
F07C
F03C
781C
7C78
1FF0
07C0
ENDCHAR
STARTCHAR uacute
ENCODING 250
SWIDTH 960 0
DWIDTH 24 0
BBX 21 20 1 0
BITMAP
007E38
007E38
00FE38
00DE38
3C9E38
7C9E38
E09E38
C19E38
E11E38
631E38
7E1E38
3C1E38
001E38
001E38
001E38
001E38
001E38
001E38
001E38
001E38
ENDCHAR
STARTCHAR ucircumflex
ENCODING 251
SWIDTH 1600 0
DWIDTH 40 0
BBX 36 18 2 0
BITMAP
07C0000000
1FF8000000
3838000000
7008000000
6000000000
E000000000
C000000000
C000000000
C001042010
C0010C3030
C0039E7030
C003DBD830
E00773CCE0
60062187C0
700E000380
383C000000
1FF8000000
07E0000000
ENDCHAR
STARTCHAR udiaeresis
ENCODING 252
SWIDTH 0 0
DWIDTH 0 0
BBX 8 10 -10 -21
BITMAP
3C
7E
CE
87
87
4F
7F
0F
0F
0F
ENDCHAR
STARTCHAR yacute
ENCODING 253
SWIDTH 0 0
DWIDTH 0 0
BBX 11 10 -13 -21
BITMAP
6000
91E0
89E0
89E0
99E0
79E0
19E0
19E0
1FE0
1FC0
ENDCHAR
STARTCHAR thorn
ENCODING 254
SWIDTH 0 0
DWIDTH 0 0
BBX 6 6 -8 -18
BITMAP
70
78
FC
FC
78
30
ENDCHAR
ENDFONT
